<svg xml:space="preserve" style="enable-background:new 0 0 256.5 253.117;" viewBox="0 0 256.5 253.117" height="253.117px" width="256.5px" y="0px" x="0px" xmlns:xlink="http://www.w3.org/1999/xlink" xmlns="http://www.w3.org/2000/svg" id="Layer_1" version="1.1">
<g style="opacity:0.67;enable-background:new    ;">
	<path d="M253.479,114.938c0-42.077-33.074-76.185-73.871-76.185c-0.635,0-1.262,0.03-1.893,0.048
		C164.834,16.48,141.217,1.515,114.201,1.515c-40.798,0-73.871,34.111-73.871,76.188c0,0.546,0.029,1.084,0.04,1.629
		C18.056,92.439,3,117.175,3,145.555c0,42.075,33.073,76.183,73.872,76.183c2.32,0,4.612-0.123,6.878-0.339
		c13.551,16.932,34.051,27.722,56.998,27.722c37.711,0,68.793-29.146,73.289-66.779
		C237.488,169.572,253.479,144.188,253.479,114.938z" style="fill:#A196B3;"></path>
</g>
<g>
	<polyline points="221.59,171.598 176.625,101.931 124.109,199.288 207.613,199.288" style="fill:#B6B6CF;"></polyline>
	<path d="M207.613,200.788h-83.504c-0.528,0-1.018-0.277-1.288-0.731c-0.271-0.453-0.283-1.016-0.032-1.48
		l52.516-97.357c0.252-0.467,0.731-0.766,1.262-0.787c0.522-0.022,1.031,0.24,1.319,0.686l44.965,69.667
		c0.449,0.696,0.249,1.625-0.447,2.074c-0.696,0.447-1.624,0.25-2.074-0.447l-43.589-67.535l-50.118,92.912h80.991
		c0.828,0,1.5,0.672,1.5,1.5S208.441,200.788,207.613,200.788z" style="fill:#6E6E96;"></path>
</g>
<path d="M26.989,201.736c13.143,12.416,30.652,19.998,49.883,19.998c2.32,0,4.612-0.123,6.878-0.336
	c13.551,16.929,34.051,27.719,56.998,27.719c30.912,0,57.359-19.592,68.37-47.381H26.989z" style="fill:#D6F0FF;"></path>
<g>
	<polygon points="29.233,199.288 76.699,111.287 133.5,199.288" style="fill:#B6B6CF;"></polygon>
	<path d="M133.52,200.788c-0.005,0-0.013,0-0.02,0H29.233c-0.528,0-1.018-0.277-1.288-0.731
		c-0.271-0.453-0.283-1.016-0.032-1.48l47.466-88.001c0.252-0.467,0.731-0.766,1.261-0.787c0.546-0.01,1.032,0.24,1.319,0.686
		l56.685,87.822c0.233,0.264,0.375,0.611,0.375,0.992C135.02,200.116,134.349,200.788,133.52,200.788z M31.746,197.788h99
		l-53.931-83.556L31.746,197.788z" style="fill:#6E6E96;"></path>
</g>
<g>
	<polygon points="58.901,199.288 124.895,76.944 203.859,199.288" style="fill:#B6B6CF;"></polygon>
	<path d="M203.879,200.788c-0.005,0-0.012,0-0.02,0H58.901c-0.528,0-1.018-0.277-1.288-0.731
		c-0.271-0.453-0.283-1.016-0.032-1.48l65.994-122.344c0.252-0.467,0.731-0.766,1.262-0.787c0.528-0.002,1.032,0.24,1.319,0.686
		l78.849,122.166c0.233,0.265,0.375,0.611,0.375,0.992C205.379,200.116,204.708,200.788,203.879,200.788z M61.415,197.788h139.691
		L125.011,79.889L61.415,197.788z" style="fill:#6E6E96;"></path>
</g>
<g style="opacity:0.22;enable-background:new    ;">
	<polygon points="124.895,76.944 165.814,176.635 124.639,134.784 144.393,180.719 83.466,188.494 
		114.266,96.647 58.901,199.288 203.311,198.409" style="fill:#6E6E96;"></polygon>
</g>
<g style="opacity:0.22;enable-background:new    ;">
	<polygon points="76.699,111.287 47.311,188.883 89.971,131.85 92.861,136.327 58.901,199.288 
		29.233,199.288" style="fill:#6E6E96;"></polygon>
</g>
<g style="opacity:0.22;enable-background:new    ;">
	<path d="M161.645,133.868l41.666,65.222l4.381,0.023c1.197-2.649,2.248-5.385,3.149-8.189h-0.837
		L161.645,133.868z M176.625,101.931l38.717,73.667c2.15-1.229,4.235-2.562,6.248-4L176.625,101.931z" style="fill:#6E6E96;"></path>
</g>
<g style="opacity:0.61;enable-background:new    ;">
	<rect height="3" width="39.334" style="fill:#FFFFFF;" y="215.333" x="114.333"></rect>
</g>
<g style="opacity:0.48;enable-background:new    ;">
	<rect height="3" width="10" style="fill:#FFFFFF;" y="218" x="194.334"></rect>
</g>
<g style="opacity:0.48;enable-background:new    ;">
	<rect height="3" width="15.334" style="fill:#FFFFFF;" y="221.333" x="78.333"></rect>
</g>
<g style="display:none;" id="Layer_3">
	<g style="display:inline;">
		<path d="M85.16,142.542c0-11.563-10.059-20.936-22.467-20.936
			c-0.194,0-0.385,0.009-0.576,0.014c-3.917-6.134-11.102-10.245-19.318-10.245c-12.409,0-22.469,9.372-22.469,20.936
			c0,0.149,0.009,0.297,0.012,0.446c-6.785,3.603-11.365,10.399-11.365,18.198c0,11.562,10.059,20.934,22.468,20.934
			c0.705,0,1.403-0.033,2.092-0.094c4.122,4.65,10.358,7.617,17.335,7.617c11.471,0,20.925-8.01,22.293-18.35
			C80.297,157.555,85.16,150.579,85.16,142.542z" style="fill:#D7F7E4;stroke:#CCCCDE;stroke-width:3;"></path>
		<path d="M62.314,120.853c-0.193,0-0.384,0.009-0.575,0.014
			c-3.141-4.918-8.383-8.534-14.573-9.775c4.898,1.229,9.023,4.208,11.558,8.175c0.165-0.004,2.416,3.886,2.583,3.886
			c10.648,0,15.601,5.738,15.601,15.66c0,6.896-2.583,11.291-8.704,14.302c-1.173,8.875-9.287,15.748-19.129,15.748
			c-5.99,0-11.34-2.544-14.877-6.531c-0.591,0.05-1.189,0.076-1.794,0.076c-10.649,0-19.013-5.048-19.013-14.968
			c0-6.683,2.99-9.973,8.432-13.938c-0.145-0.855-0.75-8.421,1.267-10.437c4.792-4.793,6.963-8.909,11.25-11.038
			c-8.414,3.025-14.385,10.627-14.385,19.536c0,0.147,0.009,0.3,0.012,0.447c-6.787,3.604-11.366,10.396-11.366,18.195
			c0,11.562,10.059,20.938,22.468,20.938c0.707,0,1.403-0.035,2.093-0.098c4.121,4.648,10.356,7.617,17.336,7.617
			c11.469,0,20.924-8.012,22.291-18.354c7.133-3.507,11.997-10.479,11.997-18.521C84.783,130.227,74.724,120.853,62.314,120.853z" style="opacity:0.1;fill:#6E6E96;enable-background:new    ;"></path>
		<path d="M30.336,153.865c0,0,11.635,2.277,11.635,13.662
			c0,0,3.132,19.342-8.976,33.026h27.96c-0.277-0.389-24.422-32.646,2.449-51.815C47.016,158.107,30.336,153.865,30.336,153.865z" style="fill:#EDE3DA;stroke:#CCCCDE;stroke-width:3;"></path>
		<g>
			<path d="M37.703,131.025" style="fill:#D57E58;"></path>
		</g>
		<path d="M56.43,153.833c0,0-17.654,22.793-4.085,46.722h8.611
			C60.955,200.555,43.04,175.518,56.43,153.833z" style="opacity:0.11;fill:#6E6E96;enable-background:new    ;"></path>
	</g>
	<g style="display:inline;">
		<path d="M255,141.26c0-10.828-9.42-19.604-21.04-19.604
			c-0.183,0-0.36,0.008-0.539,0.013c-3.669-5.744-10.396-9.595-18.091-9.595c-11.62,0-21.041,8.777-21.041,19.604
			c0,0.141,0.009,0.279,0.012,0.418c-6.354,3.375-10.644,9.739-10.644,17.043c0,10.825,9.421,19.604,21.04,19.604
			c0.66,0,1.312-0.032,1.96-0.089c3.858,4.354,9.698,7.134,16.233,7.134c10.736,0,19.596-7.499,20.875-17.185
			C250.445,155.316,255,148.786,255,141.26z" style="fill:#D7F7E4;stroke:#CCCCDE;stroke-width:3;"></path>
		<path d="M233.605,120.949c-0.186,0-0.358,0.008-0.539,0.012
			c-2.94-4.606-7.854-7.992-13.646-9.154c4.586,1.15,8.449,3.94,10.822,7.655c0.154-0.004,2.263,3.639,2.419,3.639
			c9.971,0,14.608,5.374,14.608,14.665c0,6.459-2.42,10.573-8.148,13.396c-1.1,8.311-8.698,14.742-17.914,14.742
			c-5.607,0-10.619-2.381-13.934-6.117c-0.559,0.047-1.112,0.072-1.684,0.072c-9.975,0-17.806-4.729-17.806-14.017
			c0-6.259,2.8-9.341,7.896-13.057c-0.139-0.808-0.701-7.885,1.188-9.772c4.483-4.488,6.521-8.343,10.532-10.337
			c-7.879,2.833-13.471,9.952-13.471,18.292c0,0.139,0.006,0.274,0.012,0.418c-6.354,3.373-10.646,9.735-10.646,17.041
			c0,10.823,9.421,19.604,21.041,19.604c0.661,0,1.313-0.032,1.959-0.091c3.859,4.355,9.699,7.136,16.234,7.136
			c10.739,0,19.594-7.5,20.875-17.188c6.68-3.285,11.231-9.812,11.231-17.342C254.646,129.727,245.227,120.949,233.605,120.949z" style="opacity:0.1;fill:#6E6E96;enable-background:new    ;"></path>
		<path d="M203.66,151.861c0,0,10.896,2.133,10.896,12.797
			c0,0,2.934,18.109-8.406,30.927h26.184c-0.26-0.358-22.87-30.565,2.294-48.521C219.279,155.836,203.66,151.861,203.66,151.861z" style="fill:#EDE3DA;stroke:#CCCCDE;stroke-width:3;"></path>
		<g>
			<path d="M210.561,130.477" style="fill:#D57E58;"></path>
		</g>
		<path d="M228.096,151.833c0,0-16.531,21.345-3.824,43.752h8.063
			C232.333,195.585,215.557,172.139,228.096,151.833z" style="opacity:0.11;fill:#6E6E96;enable-background:new    ;"></path>
	</g>
	<g style="display:inline;">
		<path d="M218.298,143.02c0-16.622-14.461-30.095-32.299-30.095
			c-0.278,0-0.554,0.012-0.828,0.019c-5.632-8.817-15.959-14.729-27.771-14.729c-17.838,0-32.301,13.475-32.301,30.096
			c0,0.215,0.014,0.429,0.018,0.646c-9.755,5.182-16.339,14.945-16.339,26.156c0,16.621,14.462,30.098,32.3,30.098
			c1.014,0,2.018-0.05,3.008-0.139c5.926,6.688,14.889,10.951,24.921,10.951c16.489,0,30.081-11.515,32.048-26.379
			C211.307,164.602,218.298,154.572,218.298,143.02z" style="fill:#D7F7E4;stroke:#CCCCDE;stroke-width:3;"></path>
		<path d="M185.456,111.841c-0.276,0-0.552,0.012-0.827,0.019
			c-4.516-7.071-12.051-12.269-20.949-14.052c7.041,1.766,12.971,6.049,16.614,11.751c0.237-0.006,3.474,5.586,3.713,5.586
			c15.308,0,22.429,8.248,22.429,22.511c0,9.914-3.715,16.231-12.513,20.562c-1.687,12.754-13.353,22.635-27.5,22.635
			c-8.61,0-16.302-3.655-21.387-9.396c-0.851,0.071-1.71,0.114-2.58,0.114c-15.31,0-27.332-7.254-27.332-21.516
			c0-9.604,4.298-14.337,12.12-20.039c-0.209-1.234-1.077-12.104,1.82-15.002c6.89-6.89,10.011-12.808,16.174-15.868
			c-12.096,4.349-20.679,15.277-20.679,28.08c0,0.215,0.011,0.429,0.017,0.646c-9.756,5.178-16.34,14.947-16.34,26.156
			c0,16.621,14.461,30.097,32.3,30.097c1.017,0,2.017-0.049,3.008-0.136c5.925,6.688,14.89,10.949,24.922,10.949
			c16.487,0,30.078-11.517,32.046-26.379c10.254-5.043,17.244-15.07,17.244-26.623C217.756,125.314,203.295,111.841,185.456,111.841
			z" style="opacity:0.1;fill:#6E6E96;enable-background:new    ;"></path>
		<path d="M139.484,159.296c0,0,16.727,3.272,16.727,19.644
			c0,0,4.504,27.808-12.904,47.479h40.195c-0.398-0.556-35.107-46.922,3.521-74.483
			C163.464,165.396,139.484,159.296,139.484,159.296z" style="fill:#EDE3DA;stroke:#CCCCDE;stroke-width:3;"></path>
		<g>
			<path d="M150.077,126.465" style="fill:#D57E58;"></path>
		</g>
		<path d="M176.997,159.251c0,0-25.378,32.767-5.873,67.164h12.378
			C183.502,226.415,157.748,190.423,176.997,159.251z" style="opacity:0.11;fill:#6E6E96;enable-background:new    ;"></path>
	</g>
	<g style="display:inline;">
		<path d="M146.461,144.131c0-13.645-11.873-24.707-26.517-24.707
			c-0.229,0-0.454,0.01-0.68,0.016c-4.624-7.239-13.102-12.092-22.8-12.092c-14.644,0-26.518,11.063-26.518,24.707
			c0,0.178,0.012,0.354,0.015,0.529c-8.01,4.251-13.414,12.271-13.414,21.477c0,13.646,11.872,24.707,26.518,24.707
			c0.832,0,1.655-0.041,2.469-0.104c4.864,5.483,12.224,8.983,20.46,8.983c13.537,0,24.695-9.45,26.309-21.651
			C140.721,161.85,146.461,153.617,146.461,144.131z" style="fill:#D7F7E4;stroke:#CCCCDE;stroke-width:3;"></path>
		<path d="M119.498,118.535c-0.228,0-0.452,0.009-0.679,0.015
			c-3.707-5.805-9.894-10.072-17.199-11.537c5.78,1.45,10.648,4.966,13.641,9.647c0.194-0.005,2.851,4.586,3.048,4.586
			c12.567,0,18.414,6.771,18.414,18.48c0,8.139-3.05,13.325-10.271,16.881c-1.384,10.472-10.961,18.584-22.576,18.584
			c-7.069,0-13.384-3.004-17.559-7.715c-0.698,0.061-1.404,0.096-2.118,0.096c-12.568,0-22.438-5.957-22.438-17.664
			c0-7.885,3.528-11.771,9.949-16.452c-0.171-1.015-0.884-9.938,1.496-12.316c5.655-5.657,8.218-10.515,13.277-13.028
			c-9.93,3.571-16.978,12.542-16.978,23.053c0,0.177,0.01,0.353,0.015,0.528c-8.011,4.25-13.415,12.271-13.415,21.477
			c0,13.645,11.873,24.706,26.518,24.706c0.834,0,1.655-0.04,2.469-0.108c4.864,5.488,12.224,8.988,20.461,8.988
			c13.536,0,24.693-9.451,26.311-21.656c8.418-4.141,14.158-12.371,14.158-21.854C146.016,129.598,134.143,118.535,119.498,118.535z" style="opacity:0.1;fill:#6E6E96;enable-background:new    ;"></path>
		<path d="M81.757,157.494c0,0,13.731,2.688,13.731,16.128
			c0,0,3.697,22.823-10.595,38.978h33c-0.328-0.455-28.824-38.521,2.89-61.151C101.443,162.502,81.757,157.494,81.757,157.494z" style="fill:#EDE3DA;stroke:#CCCCDE;stroke-width:3;"></path>
		<g>
			<path d="M90.453,130.541" style="fill:#D57E58;"></path>
		</g>
		<path d="M112.553,157.458c0,0-20.835,26.899-4.821,55.142h10.162
			C117.894,212.6,96.75,183.049,112.553,157.458z" style="opacity:0.11;fill:#6E6E96;enable-background:new    ;"></path>
	</g>
	<g style="display:inline;">
		<path d="M253.684,168.268c0-12.345-10.74-22.35-23.988-22.35
			c-0.2,0-0.404,0.008-0.608,0.014c-4.188-6.549-11.854-10.938-20.625-10.938c-13.248,0-23.983,10.007-23.983,22.35
			c0,0.161,0.012,0.318,0.014,0.479c-7.244,3.851-12.135,11.104-12.135,19.433c0,12.35,10.734,22.354,23.983,22.354
			c0.753,0,1.497-0.038,2.229-0.104c4.4,4.971,11.062,8.137,18.513,8.137c12.245,0,22.339-8.555,23.799-19.595
			C248.49,184.295,253.684,176.85,253.684,168.268z" style="fill:#D7F7E4;stroke:#CCCCDE;stroke-width:3;"></path>
		<path d="M229.292,145.111c-0.206,0-0.409,0.011-0.614,0.016
			c-3.354-5.251-8.949-9.111-15.558-10.438c5.229,1.312,9.633,4.492,12.339,8.728c0.175-0.004,2.579,4.149,2.757,4.149
			c11.368,0,16.655,6.123,16.655,16.718c0,7.362-2.757,12.055-9.291,15.271c-1.252,9.473-9.915,16.813-20.423,16.813
			c-6.396,0-12.106-2.72-15.884-6.979c-0.631,0.055-1.271,0.086-1.916,0.086c-11.368,0-20.299-5.389-20.299-15.979
			c0-7.135,3.188-10.646,9.002-14.885c-0.156-0.918-0.806-8.987,1.353-11.142c5.116-5.116,7.435-9.515,12.011-11.784
			c-8.98,3.229-15.357,11.346-15.357,20.854c0,0.158,0.015,0.316,0.019,0.479c-7.246,3.847-12.14,11.104-12.14,19.429
			c0,12.345,10.738,22.352,23.988,22.352c0.754,0,1.496-0.032,2.231-0.102c4.401,4.968,11.06,8.134,18.509,8.134
			c12.245,0,22.338-8.555,23.799-19.594c7.615-3.741,12.813-11.189,12.813-19.771C253.279,155.118,242.541,145.111,229.292,145.111z" style="opacity:0.1;fill:#6E6E96;enable-background:new    ;"></path>
		<path d="M195.15,180.355c0,0,12.422,2.431,12.422,14.588
			c0,0,3.345,20.646-9.584,35.259h29.853c-0.296-0.41-26.073-34.847,2.615-55.317C212.96,184.887,195.15,180.355,195.15,180.355z" style="fill:#EDE3DA;stroke:#CCCCDE;stroke-width:3;"></path>
		<g>
			<path d="M203.018,155.975" style="fill:#D57E58;"></path>
		</g>
		<path d="M223.01,180.322c0,0-18.847,24.334-4.361,49.88h9.192
			C227.841,230.202,208.714,203.473,223.01,180.322z" style="opacity:0.11;fill:#6E6E96;enable-background:new    ;"></path>
	</g>
	<g style="display:inline;">
		<path d="M89.418,166.416c0-13.111-11.408-23.738-25.479-23.738
			c-0.22,0-0.436,0.008-0.653,0.014c-4.443-6.954-12.589-11.612-21.907-11.612c-14.071,0-25.48,10.629-25.48,23.735
			c0,0.17,0.011,0.336,0.015,0.507c-7.695,4.086-12.889,11.795-12.889,20.642c0,13.105,11.407,23.735,25.479,23.735
			c0.8,0,1.59-0.041,2.372-0.104c4.674,5.271,11.745,8.639,19.659,8.639c13.007,0,23.729-9.082,25.279-20.81
			C83.903,183.439,89.418,175.531,89.418,166.416z" style="fill:#D7F7E4;stroke:#CCCCDE;stroke-width:3;"></path>
		<path d="M63.511,141.822c-0.219,0-0.435,0.01-0.652,0.015
			c-3.562-5.577-9.506-9.678-16.525-11.085c5.553,1.393,10.231,4.771,13.106,9.27c0.186-0.004,2.739,4.406,2.928,4.406
			c12.076,0,17.692,6.506,17.692,17.758c0,7.82-2.929,12.806-9.87,16.222c-1.33,10.063-10.531,17.854-21.693,17.854
			c-6.792,0-12.859-2.886-16.871-7.412c-0.67,0.058-1.348,0.092-2.035,0.092c-12.076,0-21.561-5.723-21.561-16.975
			c0-7.574,3.391-11.308,9.561-15.807c-0.165-0.975-0.85-9.549,1.437-11.836c5.435-5.434,7.896-10.103,12.758-12.516
			c-9.541,3.43-16.313,12.051-16.313,22.146c0,0.17,0.01,0.338,0.014,0.508c-7.696,4.084-12.889,11.792-12.889,20.64
			c0,13.105,11.407,23.734,25.479,23.734c0.801,0,1.591-0.039,2.373-0.104c4.674,5.271,11.745,8.639,19.659,8.639
			c13.006,0,23.728-9.081,25.278-20.809c8.089-3.979,13.604-11.894,13.604-21.002C88.991,152.449,77.583,141.822,63.511,141.822z" style="opacity:0.1;fill:#6E6E96;enable-background:new    ;"></path>
		<path d="M27.248,179.256c0,0,13.193,2.583,13.193,15.496
			c0,0,3.553,21.932-10.179,37.45h31.707c-0.314-0.437-27.694-37.015,2.777-58.759C46.163,184.066,27.248,179.256,27.248,179.256z" style="fill:#EDE3DA;stroke:#CCCCDE;stroke-width:3;"></path>
		<g>
			<path d="M35.603,153.357" style="fill:#D57E58;"></path>
		</g>
		<path d="M56.838,179.221c0,0-20.02,25.848-4.633,52.981h9.764
			C61.969,232.202,41.654,203.811,56.838,179.221z" style="opacity:0.11;fill:#6E6E96;enable-background:new    ;"></path>
	</g>
</g>
<path d="M140.748,253.117c28.939,0,53.959-17.174,66.072-42.166l-172.489-3.118
	c12.243,9.287,26.176,17.901,42.541,17.901c2.32,0,4.612-0.123,6.878-0.336C97.301,242.327,117.801,253.117,140.748,253.117z" style="fill:#D6F0FF;"></path>
<g style="opacity:0.1;enable-background:new    ;">
	<path d="M206.82,200.951H33.15c-11.4,0,1.181,6.882,1.181,6.882h168.714
		C204.416,205.615,205.674,203.316,206.82,200.951z" style="fill:#6E6E96;"></path>
</g>
<rect height="3" width="12.667" style="fill:#FFFFFF;" y="222" x="169"></rect>
<rect height="3" width="34.667" style="fill:#FFFFFF;" y="240.667" x="123.667"></rect>
<rect height="3" width="25.424" style="fill:#FFFFFF;" y="217.333" x="87.576"></rect>
<rect height="3" width="20.417" style="fill:#FFFFFF;" y="224.227" x="125.667"></rect>
<g style="opacity:0.53;enable-background:new    ;">
	<polygon points="83.466,190.494 125.25,101.559 165.814,178.635 124.895,78.944" style="fill:#D6D6EB;"></polygon>
</g>
<g id="Layer_2_1_">
</g>
<g>
	<path d="M65.659,181.661c-0.393,0-0.792-0.078-1.176-0.242c-1.524-0.65-2.232-2.413-1.582-3.937
		l5.632-13.191c0.103-0.241,0.237-0.467,0.398-0.673l13.196-16.832c0.315-0.402,0.729-0.718,1.2-0.916l15.884-6.666l15.711-15.71
		l6.196-11.851c0.141-0.27,0.322-0.516,0.538-0.731l16.547-16.548l6.373-19.553c0.282-0.865,0.942-1.556,1.794-1.877l7.581-2.859
		l-2.704-11.243c-0.159-0.662-0.088-1.359,0.201-1.975l8.715-18.588c0.703-1.5,2.489-2.145,3.989-1.443
		c1.5,0.704,2.146,2.49,1.442,3.99l-8.268,17.636l3.077,12.794c0.354,1.471-0.443,2.975-1.858,3.509l-8.711,3.286l-6.149,18.868
		c-0.146,0.449-0.397,0.857-0.731,1.191l-16.731,16.732l-6.196,11.851c-0.141,0.27-0.322,0.516-0.538,0.731l-16.452,16.451
		c-0.275,0.275-0.601,0.494-0.96,0.646l-15.708,6.593L73.896,167.01l-5.477,12.828C67.933,180.978,66.824,181.661,65.659,181.661z" style="fill:#FFFFFF;"></path>
	<path d="M171.415,183.291c-0.552,0-1.083-0.306-1.345-0.833l-10.016-20.188
		c-0.149-0.302-0.193-0.645-0.124-0.974l4.84-23.152h-3.372c-0.397,0-0.779-0.158-1.061-0.439l-10.383-10.387
		c-0.1-0.1-0.186-0.213-0.253-0.337l-6.088-11.05c-0.271-0.491-0.245-1.091,0.066-1.557l5.379-8.049l-9.288-9.288
		c-0.586-0.585-0.586-1.535,0-2.121s1.535-0.586,2.121,0l10.159,10.159c0.506,0.506,0.584,1.299,0.187,1.894l-5.557,8.314
		l5.545,10.064l9.793,9.797h4.597c0.452,0,0.879,0.203,1.164,0.554s0.396,0.812,0.304,1.253l-5.111,24.451l9.785,19.722
		c0.368,0.742,0.065,1.643-0.677,2.011C171.866,183.241,171.639,183.291,171.415,183.291z" style="fill:#FFFFFF;"></path>
</g>
<g id="Layer_2">
	<g style="opacity:0.64;">
		<path d="M49.992,102.814c-0.512,0-1.024-0.195-1.414-0.586c-0.781-0.781-0.781-2.047,0-2.828l20.5-20.5
			c0.78-0.781,2.048-0.781,2.828,0c0.781,0.781,0.781,2.047,0,2.828l-20.5,20.5C51.016,102.619,50.504,102.814,49.992,102.814z" style="fill:#FFFFFF;"></path>
		<path d="M97.992,89.814c-0.512,0-1.024-0.195-1.414-0.586c-0.781-0.781-0.781-2.047,0-2.828l17.5-17.5
			c0.78-0.781,2.048-0.781,2.828,0c0.781,0.781,0.781,2.047,0,2.828l-17.5,17.5C99.016,89.619,98.504,89.814,97.992,89.814z" style="fill:#FFFFFF;"></path>
		<path d="M113.322,125.144c-0.512,0-1.023-0.195-1.414-0.586
			c-0.781-0.781-0.781-2.047,0-2.828l17-17c0.781-0.781,2.047-0.781,2.828,0c0.781,0.781,0.781,2.047,0,2.828l-17,17
			C114.346,124.949,113.833,125.144,113.322,125.144z" style="opacity:0.45;fill:#FFFFFF;enable-background:new    ;"></path>
		<path d="M61.492,139.312c-0.512,0-1.024-0.195-1.414-0.586c-0.781-0.781-0.781-2.047,0-2.828l13-12.999
			c0.781-0.781,2.048-0.781,2.828,0c0.781,0.781,0.781,2.047,0,2.828l-13,12.999C62.516,139.117,62.004,139.312,61.492,139.312z" style="fill:#FFFFFF;"></path>
		<path d="M115.836,160.712c-0.512,0-1.024-0.195-1.414-0.586c-0.781-0.781-0.781-2.047,0-2.828l16-16
			c0.781-0.781,2.047-0.781,2.828,0s0.781,2.047,0,2.828l-16,16C116.86,160.517,116.348,160.712,115.836,160.712z" style="fill:#FFFFFF;"></path>
		<path d="M159.992,101.814c-0.512,0-1.023-0.195-1.414-0.586c-0.781-0.781-0.781-2.047,0-2.828l13-13
			c0.781-0.781,2.047-0.781,2.828,0c0.781,0.781,0.781,2.047,0,2.828l-13,13C161.016,101.619,160.504,101.814,159.992,101.814z" style="fill:#FFFFFF;"></path>
		<path d="M146.242,67.064c-0.512,0-1.023-0.195-1.414-0.586
			c-0.781-0.781-0.781-2.047,0-2.828l13.75-13.75c0.781-0.781,2.047-0.781,2.828,0c0.781,0.781,0.781,2.047,0,2.828l-13.75,13.75
			C147.266,66.869,146.754,67.064,146.242,67.064z" style="opacity:0.45;fill:#FFFFFF;enable-background:new    ;"></path>
		<path d="M102.492,49.314c-0.512,0-1.024-0.195-1.414-0.586c-0.781-0.781-0.781-2.047,0-2.828l14-14
			c0.78-0.781,2.048-0.781,2.828,0c0.781,0.781,0.781,2.047,0,2.828l-14,14C103.516,49.119,103.004,49.314,102.492,49.314z" style="fill:#FFFFFF;"></path>
		<path d="M58.492,57.314c-0.512,0-1.024-0.195-1.414-0.586
			c-0.781-0.781-0.781-2.047,0-2.828l17-17c0.78-0.781,2.048-0.781,2.828,0c0.781,0.781,0.781,2.047,0,2.828l-17,17
			C59.516,57.119,59.004,57.314,58.492,57.314z" style="opacity:0.45;fill:#FFFFFF;enable-background:new    ;"></path>
		<path d="M210.697,96.115c-0.512,0-1.023-0.195-1.414-0.586
			c-0.781-0.781-0.781-2.047,0-2.828l13.053-13.053c0.781-0.781,2.047-0.781,2.828,0c0.781,0.781,0.781,2.047,0,2.828
			l-13.053,13.053C211.721,95.92,211.209,96.115,210.697,96.115z" style="opacity:0.45;fill:#FFFFFF;enable-background:new    ;"></path>
		<path d="M199.686,178.364c-0.512,0-1.023-0.195-1.414-0.586
			c-0.781-0.781-0.781-2.047,0-2.828l16.246-16.246c0.781-0.781,2.047-0.781,2.828,0s0.781,2.047,0,2.828L201.1,177.778
			C200.709,178.169,200.197,178.364,199.686,178.364z" style="opacity:0.45;fill:#FFFFFF;enable-background:new    ;"></path>
		<path d="M164.844,147.795c-0.512,0-1.023-0.195-1.414-0.586c-0.781-0.781-0.781-2.047,0-2.828
			l13.452-13.452c0.781-0.781,2.047-0.781,2.828,0s0.781,2.047,0,2.828l-13.452,13.452
			C165.867,147.6,165.355,147.795,164.844,147.795z" style="fill:#FFFFFF;"></path>
		<path d="M78.75,206.062c-0.512,0-1.024-0.195-1.414-0.586c-0.781-0.781-0.781-2.047,0-2.828l14-14
			c0.78-0.781,2.048-0.781,2.828,0c0.781,0.781,0.781,2.047,0,2.828l-14,14C79.774,205.867,79.262,206.062,78.75,206.062z" style="fill:#FFFFFF;"></path>
		<path d="M30.697,192.009c-0.512,0-1.024-0.195-1.414-0.586c-0.781-0.781-0.781-2.047,0-2.828l16.288-16.286
			c0.781-0.781,2.048-0.781,2.828,0c0.781,0.781,0.781,2.047,0,2.828l-16.288,16.286C31.72,191.813,31.208,192.009,30.697,192.009z" style="fill:#FFFFFF;"></path>
		<path d="M118.25,237.562c-0.512,0-1.023-0.195-1.414-0.586c-0.781-0.781-0.781-2.047,0-2.828l16.387-16.388
			c0.781-0.781,2.047-0.781,2.828,0s0.781,2.047,0,2.828l-16.387,16.388C119.274,237.367,118.762,237.562,118.25,237.562z" style="fill:#FFFFFF;"></path>
	</g>
</g>
</svg>
